<mxfile host="Electron" agent="Mozilla/5.0 (Windows NT 10.0; Win64; x64) AppleWebKit/537.36 (KHTML, like Gecko) draw.io/24.7.8 Chrome/128.0.6613.36 Electron/32.0.1 Safari/537.36" version="24.7.8">
  <diagram name="Page-1" id="2cc2dc42-3aac-f2a9-1cec-7a8b7cbee084">
    <mxGraphModel dx="1434" dy="836" grid="1" gridSize="10" guides="1" tooltips="1" connect="1" arrows="1" fold="1" page="1" pageScale="1" pageWidth="1100" pageHeight="850" background="none" math="0" shadow="0">
      <root>
        <mxCell id="0" />
        <mxCell id="1" parent="0" />
        <mxCell id="u52cNytf9pB5Nw0GOw8_-13" value="" style="strokeWidth=1;shadow=0;dashed=0;align=center;html=1;shape=mxgraph.mockup.containers.browserWindow;rSize=0;strokeColor=#666666;strokeColor2=#008cff;strokeColor3=#c4c4c4;mainText=,;recursiveResize=0;" parent="1" vertex="1">
          <mxGeometry x="50" y="30" width="1020" height="770" as="geometry" />
        </mxCell>
        <mxCell id="u52cNytf9pB5Nw0GOw8_-14" value="Page 1" style="strokeWidth=1;shadow=0;dashed=0;align=center;html=1;shape=mxgraph.mockup.containers.anchor;fontSize=17;fontColor=#666666;align=left;whiteSpace=wrap;" parent="u52cNytf9pB5Nw0GOw8_-13" vertex="1">
          <mxGeometry x="60" y="12" width="110" height="26" as="geometry" />
        </mxCell>
        <mxCell id="u52cNytf9pB5Nw0GOw8_-15" value="LMS HOME / Books" style="strokeWidth=1;shadow=0;dashed=0;align=center;html=1;shape=mxgraph.mockup.containers.anchor;rSize=0;fontSize=17;fontColor=#666666;align=left;" parent="u52cNytf9pB5Nw0GOw8_-13" vertex="1">
          <mxGeometry x="130" y="60" width="250" height="26" as="geometry" />
        </mxCell>
        <mxCell id="u52cNytf9pB5Nw0GOw8_-17" value="LMS" style="text;strokeColor=none;fillColor=none;html=1;fontSize=24;fontStyle=1;verticalAlign=middle;align=center;" parent="u52cNytf9pB5Nw0GOw8_-13" vertex="1">
          <mxGeometry x="60" y="140" width="100" height="40" as="geometry" />
        </mxCell>
        <mxCell id="9EujGWN3wRDiF9waKeuq-1" value="&lt;span style=&quot;font-weight: normal;&quot;&gt;&lt;font color=&quot;#cc6600&quot; style=&quot;font-size: 16px;&quot;&gt;Welcome staff@lms.com&lt;/font&gt;&lt;/span&gt;" style="text;strokeColor=none;fillColor=none;html=1;fontSize=24;fontStyle=1;verticalAlign=middle;align=center;" parent="u52cNytf9pB5Nw0GOw8_-13" vertex="1">
          <mxGeometry x="520" y="140" width="430" height="40" as="geometry" />
        </mxCell>
        <mxCell id="9EujGWN3wRDiF9waKeuq-3" value="Manage Books" style="html=1;shadow=0;dashed=0;shape=mxgraph.bootstrap.rrect;rSize=5;strokeColor=#CC6600;strokeWidth=1;fillColor=none;fontColor=#0085FC;whiteSpace=wrap;align=center;verticalAlign=middle;spacingLeft=0;fontStyle=0;fontSize=16;spacing=5;" parent="u52cNytf9pB5Nw0GOw8_-13" vertex="1">
          <mxGeometry x="60" y="220" width="130" height="40" as="geometry" />
        </mxCell>
        <mxCell id="9EujGWN3wRDiF9waKeuq-5" value="Manage Staff" style="html=1;shadow=0;dashed=0;shape=mxgraph.bootstrap.rrect;rSize=5;strokeColor=#0085FC;strokeWidth=1;fillColor=none;fontColor=#0085FC;whiteSpace=wrap;align=center;verticalAlign=middle;spacingLeft=0;fontStyle=0;fontSize=16;spacing=5;" parent="u52cNytf9pB5Nw0GOw8_-13" vertex="1">
          <mxGeometry x="210" y="220" width="130" height="40" as="geometry" />
        </mxCell>
        <mxCell id="9EujGWN3wRDiF9waKeuq-6" value="Manage Borrowals" style="html=1;shadow=0;dashed=0;shape=mxgraph.bootstrap.rrect;rSize=5;strokeColor=#0085FC;strokeWidth=1;fillColor=none;fontColor=#0085FC;whiteSpace=wrap;align=center;verticalAlign=middle;spacingLeft=0;fontStyle=0;fontSize=16;spacing=5;" parent="u52cNytf9pB5Nw0GOw8_-13" vertex="1">
          <mxGeometry x="510" y="220" width="130" height="40" as="geometry" />
        </mxCell>
        <mxCell id="9EujGWN3wRDiF9waKeuq-7" value="Manage Members" style="html=1;shadow=0;dashed=0;shape=mxgraph.bootstrap.rrect;rSize=5;strokeColor=#0085FC;strokeWidth=1;fillColor=none;fontColor=#0085FC;whiteSpace=wrap;align=center;verticalAlign=middle;spacingLeft=0;fontStyle=0;fontSize=16;spacing=5;" parent="u52cNytf9pB5Nw0GOw8_-13" vertex="1">
          <mxGeometry x="360" y="220" width="130" height="40" as="geometry" />
        </mxCell>
        <mxCell id="9EujGWN3wRDiF9waKeuq-8" value="" style="swimlane;shape=mxgraph.bootstrap.anchor;strokeColor=#DEE2E6;fillColor=#ffffff;fontColor=#0085FC;fontStyle=0;childLayout=stackLayout;horizontal=0;startSize=0;horizontalStack=1;resizeParent=1;resizeParentMax=0;resizeLast=0;collapsible=0;marginBottom=0;whiteSpace=wrap;html=1;" parent="u52cNytf9pB5Nw0GOw8_-13" vertex="1">
          <mxGeometry x="340" y="670" width="220" height="30" as="geometry" />
        </mxCell>
        <mxCell id="9EujGWN3wRDiF9waKeuq-9" value="Previous" style="text;strokeColor=inherit;align=center;verticalAlign=middle;spacingLeft=5;spacingRight=5;overflow=hidden;points=[[0,0.5],[1,0.5]];portConstraint=eastwest;rotatable=0;whiteSpace=wrap;html=1;shape=mxgraph.bootstrap.leftButton;rSize=5;fillColor=inherit;fontColor=inherit;fontSize=14;" parent="9EujGWN3wRDiF9waKeuq-8" vertex="1">
          <mxGeometry width="70" height="30" as="geometry" />
        </mxCell>
        <mxCell id="9EujGWN3wRDiF9waKeuq-10" value="1" style="text;strokeColor=inherit;align=center;verticalAlign=middle;spacingLeft=5;spacingRight=5;overflow=hidden;points=[[0,0.5],[1,0.5]];portConstraint=eastwest;rotatable=0;whiteSpace=wrap;html=1;rSize=5;fillColor=inherit;fontColor=inherit;fontSize=14;" parent="9EujGWN3wRDiF9waKeuq-8" vertex="1">
          <mxGeometry x="70" width="30" height="30" as="geometry" />
        </mxCell>
        <mxCell id="9EujGWN3wRDiF9waKeuq-11" value="2" style="text;strokeColor=inherit;align=center;verticalAlign=middle;spacingLeft=5;spacingRight=5;overflow=hidden;points=[[0,0.5],[1,0.5]];portConstraint=eastwest;rotatable=0;whiteSpace=wrap;html=1;rSize=5;fillColor=inherit;fontColor=inherit;fontSize=14;" parent="9EujGWN3wRDiF9waKeuq-8" vertex="1">
          <mxGeometry x="100" width="30" height="30" as="geometry" />
        </mxCell>
        <mxCell id="9EujGWN3wRDiF9waKeuq-12" value="3" style="text;strokeColor=inherit;align=center;verticalAlign=middle;spacingLeft=5;spacingRight=5;overflow=hidden;points=[[0,0.5],[1,0.5]];portConstraint=eastwest;rotatable=0;whiteSpace=wrap;html=1;rSize=5;fillColor=inherit;fontColor=inherit;fontSize=14;" parent="9EujGWN3wRDiF9waKeuq-8" vertex="1">
          <mxGeometry x="130" width="30" height="30" as="geometry" />
        </mxCell>
        <mxCell id="9EujGWN3wRDiF9waKeuq-13" value="Next" style="text;strokeColor=inherit;align=center;verticalAlign=middle;spacingLeft=5;spacingRight=5;overflow=hidden;points=[[0,0.5],[1,0.5]];portConstraint=eastwest;rotatable=0;whiteSpace=wrap;html=1;shape=mxgraph.bootstrap.rightButton;rSize=5;fillColor=inherit;fontColor=inherit;fontSize=14;" parent="9EujGWN3wRDiF9waKeuq-8" vertex="1">
          <mxGeometry x="160" width="60" height="30" as="geometry" />
        </mxCell>
        <mxCell id="9EujGWN3wRDiF9waKeuq-29" value="ADD BOOK" style="rounded=1;whiteSpace=wrap;html=1;" parent="u52cNytf9pB5Nw0GOw8_-13" vertex="1">
          <mxGeometry x="840" y="225" width="100" height="30" as="geometry" />
        </mxCell>
        <mxCell id="9EujGWN3wRDiF9waKeuq-86" value="" style="shape=table;startSize=0;container=1;collapsible=0;childLayout=tableLayout;" parent="u52cNytf9pB5Nw0GOw8_-13" vertex="1">
          <mxGeometry x="50" y="410" width="890" height="200" as="geometry" />
        </mxCell>
        <mxCell id="9EujGWN3wRDiF9waKeuq-87" value="" style="shape=tableRow;horizontal=0;startSize=0;swimlaneHead=0;swimlaneBody=0;strokeColor=inherit;top=0;left=0;bottom=0;right=0;collapsible=0;dropTarget=0;fillColor=none;points=[[0,0.5],[1,0.5]];portConstraint=eastwest;" parent="9EujGWN3wRDiF9waKeuq-86" vertex="1">
          <mxGeometry width="890" height="40" as="geometry" />
        </mxCell>
        <mxCell id="9EujGWN3wRDiF9waKeuq-88" value="ID" style="shape=partialRectangle;html=1;whiteSpace=wrap;connectable=0;strokeColor=inherit;overflow=hidden;fillColor=none;top=0;left=0;bottom=0;right=0;pointerEvents=1;" parent="9EujGWN3wRDiF9waKeuq-87" vertex="1">
          <mxGeometry width="127" height="40" as="geometry">
            <mxRectangle width="127" height="40" as="alternateBounds" />
          </mxGeometry>
        </mxCell>
        <mxCell id="9EujGWN3wRDiF9waKeuq-89" value="Title" style="shape=partialRectangle;html=1;whiteSpace=wrap;connectable=0;strokeColor=inherit;overflow=hidden;fillColor=none;top=0;left=0;bottom=0;right=0;pointerEvents=1;" parent="9EujGWN3wRDiF9waKeuq-87" vertex="1">
          <mxGeometry x="127" width="127" height="40" as="geometry">
            <mxRectangle width="127" height="40" as="alternateBounds" />
          </mxGeometry>
        </mxCell>
        <mxCell id="9EujGWN3wRDiF9waKeuq-90" value="Author" style="shape=partialRectangle;html=1;whiteSpace=wrap;connectable=0;strokeColor=inherit;overflow=hidden;fillColor=none;top=0;left=0;bottom=0;right=0;pointerEvents=1;" parent="9EujGWN3wRDiF9waKeuq-87" vertex="1">
          <mxGeometry x="254" width="127" height="40" as="geometry">
            <mxRectangle width="127" height="40" as="alternateBounds" />
          </mxGeometry>
        </mxCell>
        <mxCell id="9EujGWN3wRDiF9waKeuq-91" value="Published" style="shape=partialRectangle;html=1;whiteSpace=wrap;connectable=0;strokeColor=inherit;overflow=hidden;fillColor=none;top=0;left=0;bottom=0;right=0;pointerEvents=1;" parent="9EujGWN3wRDiF9waKeuq-87" vertex="1">
          <mxGeometry x="381" width="128" height="40" as="geometry">
            <mxRectangle width="128" height="40" as="alternateBounds" />
          </mxGeometry>
        </mxCell>
        <mxCell id="9EujGWN3wRDiF9waKeuq-92" value="Genre" style="shape=partialRectangle;html=1;whiteSpace=wrap;connectable=0;strokeColor=inherit;overflow=hidden;fillColor=none;top=0;left=0;bottom=0;right=0;pointerEvents=1;" parent="9EujGWN3wRDiF9waKeuq-87" vertex="1">
          <mxGeometry x="509" width="127" height="40" as="geometry">
            <mxRectangle width="127" height="40" as="alternateBounds" />
          </mxGeometry>
        </mxCell>
        <mxCell id="9EujGWN3wRDiF9waKeuq-93" value="Edit" style="shape=partialRectangle;html=1;whiteSpace=wrap;connectable=0;strokeColor=inherit;overflow=hidden;fillColor=none;top=0;left=0;bottom=0;right=0;pointerEvents=1;" parent="9EujGWN3wRDiF9waKeuq-87" vertex="1">
          <mxGeometry x="636" width="127" height="40" as="geometry">
            <mxRectangle width="127" height="40" as="alternateBounds" />
          </mxGeometry>
        </mxCell>
        <mxCell id="9EujGWN3wRDiF9waKeuq-94" value="Delete" style="shape=partialRectangle;html=1;whiteSpace=wrap;connectable=0;strokeColor=inherit;overflow=hidden;fillColor=none;top=0;left=0;bottom=0;right=0;pointerEvents=1;" parent="9EujGWN3wRDiF9waKeuq-87" vertex="1">
          <mxGeometry x="763" width="127" height="40" as="geometry">
            <mxRectangle width="127" height="40" as="alternateBounds" />
          </mxGeometry>
        </mxCell>
        <mxCell id="9EujGWN3wRDiF9waKeuq-95" value="" style="shape=tableRow;horizontal=0;startSize=0;swimlaneHead=0;swimlaneBody=0;strokeColor=inherit;top=0;left=0;bottom=0;right=0;collapsible=0;dropTarget=0;fillColor=none;points=[[0,0.5],[1,0.5]];portConstraint=eastwest;" parent="9EujGWN3wRDiF9waKeuq-86" vertex="1">
          <mxGeometry y="40" width="890" height="40" as="geometry" />
        </mxCell>
        <mxCell id="9EujGWN3wRDiF9waKeuq-96" value="" style="shape=partialRectangle;html=1;whiteSpace=wrap;connectable=0;strokeColor=inherit;overflow=hidden;fillColor=none;top=0;left=0;bottom=0;right=0;pointerEvents=1;" parent="9EujGWN3wRDiF9waKeuq-95" vertex="1">
          <mxGeometry width="127" height="40" as="geometry">
            <mxRectangle width="127" height="40" as="alternateBounds" />
          </mxGeometry>
        </mxCell>
        <mxCell id="9EujGWN3wRDiF9waKeuq-97" value="" style="shape=partialRectangle;html=1;whiteSpace=wrap;connectable=0;strokeColor=inherit;overflow=hidden;fillColor=none;top=0;left=0;bottom=0;right=0;pointerEvents=1;" parent="9EujGWN3wRDiF9waKeuq-95" vertex="1">
          <mxGeometry x="127" width="127" height="40" as="geometry">
            <mxRectangle width="127" height="40" as="alternateBounds" />
          </mxGeometry>
        </mxCell>
        <mxCell id="9EujGWN3wRDiF9waKeuq-98" value="" style="shape=partialRectangle;html=1;whiteSpace=wrap;connectable=0;strokeColor=inherit;overflow=hidden;fillColor=none;top=0;left=0;bottom=0;right=0;pointerEvents=1;" parent="9EujGWN3wRDiF9waKeuq-95" vertex="1">
          <mxGeometry x="254" width="127" height="40" as="geometry">
            <mxRectangle width="127" height="40" as="alternateBounds" />
          </mxGeometry>
        </mxCell>
        <mxCell id="9EujGWN3wRDiF9waKeuq-99" value="" style="shape=partialRectangle;html=1;whiteSpace=wrap;connectable=0;strokeColor=inherit;overflow=hidden;fillColor=none;top=0;left=0;bottom=0;right=0;pointerEvents=1;" parent="9EujGWN3wRDiF9waKeuq-95" vertex="1">
          <mxGeometry x="381" width="128" height="40" as="geometry">
            <mxRectangle width="128" height="40" as="alternateBounds" />
          </mxGeometry>
        </mxCell>
        <mxCell id="9EujGWN3wRDiF9waKeuq-100" value="" style="shape=partialRectangle;html=1;whiteSpace=wrap;connectable=0;strokeColor=inherit;overflow=hidden;fillColor=none;top=0;left=0;bottom=0;right=0;pointerEvents=1;" parent="9EujGWN3wRDiF9waKeuq-95" vertex="1">
          <mxGeometry x="509" width="127" height="40" as="geometry">
            <mxRectangle width="127" height="40" as="alternateBounds" />
          </mxGeometry>
        </mxCell>
        <mxCell id="9EujGWN3wRDiF9waKeuq-101" value="" style="shape=partialRectangle;html=1;whiteSpace=wrap;connectable=0;strokeColor=inherit;overflow=hidden;fillColor=none;top=0;left=0;bottom=0;right=0;pointerEvents=1;" parent="9EujGWN3wRDiF9waKeuq-95" vertex="1">
          <mxGeometry x="636" width="127" height="40" as="geometry">
            <mxRectangle width="127" height="40" as="alternateBounds" />
          </mxGeometry>
        </mxCell>
        <mxCell id="9EujGWN3wRDiF9waKeuq-102" value="" style="shape=partialRectangle;html=1;whiteSpace=wrap;connectable=0;strokeColor=inherit;overflow=hidden;fillColor=none;top=0;left=0;bottom=0;right=0;pointerEvents=1;" parent="9EujGWN3wRDiF9waKeuq-95" vertex="1">
          <mxGeometry x="763" width="127" height="40" as="geometry">
            <mxRectangle width="127" height="40" as="alternateBounds" />
          </mxGeometry>
        </mxCell>
        <mxCell id="9EujGWN3wRDiF9waKeuq-103" value="" style="shape=tableRow;horizontal=0;startSize=0;swimlaneHead=0;swimlaneBody=0;strokeColor=inherit;top=0;left=0;bottom=0;right=0;collapsible=0;dropTarget=0;fillColor=none;points=[[0,0.5],[1,0.5]];portConstraint=eastwest;" parent="9EujGWN3wRDiF9waKeuq-86" vertex="1">
          <mxGeometry y="80" width="890" height="40" as="geometry" />
        </mxCell>
        <mxCell id="9EujGWN3wRDiF9waKeuq-104" value="" style="shape=partialRectangle;html=1;whiteSpace=wrap;connectable=0;strokeColor=inherit;overflow=hidden;fillColor=none;top=0;left=0;bottom=0;right=0;pointerEvents=1;" parent="9EujGWN3wRDiF9waKeuq-103" vertex="1">
          <mxGeometry width="127" height="40" as="geometry">
            <mxRectangle width="127" height="40" as="alternateBounds" />
          </mxGeometry>
        </mxCell>
        <mxCell id="9EujGWN3wRDiF9waKeuq-105" value="" style="shape=partialRectangle;html=1;whiteSpace=wrap;connectable=0;strokeColor=inherit;overflow=hidden;fillColor=none;top=0;left=0;bottom=0;right=0;pointerEvents=1;" parent="9EujGWN3wRDiF9waKeuq-103" vertex="1">
          <mxGeometry x="127" width="127" height="40" as="geometry">
            <mxRectangle width="127" height="40" as="alternateBounds" />
          </mxGeometry>
        </mxCell>
        <mxCell id="9EujGWN3wRDiF9waKeuq-106" value="" style="shape=partialRectangle;html=1;whiteSpace=wrap;connectable=0;strokeColor=inherit;overflow=hidden;fillColor=none;top=0;left=0;bottom=0;right=0;pointerEvents=1;" parent="9EujGWN3wRDiF9waKeuq-103" vertex="1">
          <mxGeometry x="254" width="127" height="40" as="geometry">
            <mxRectangle width="127" height="40" as="alternateBounds" />
          </mxGeometry>
        </mxCell>
        <mxCell id="9EujGWN3wRDiF9waKeuq-107" value="" style="shape=partialRectangle;html=1;whiteSpace=wrap;connectable=0;strokeColor=inherit;overflow=hidden;fillColor=none;top=0;left=0;bottom=0;right=0;pointerEvents=1;" parent="9EujGWN3wRDiF9waKeuq-103" vertex="1">
          <mxGeometry x="381" width="128" height="40" as="geometry">
            <mxRectangle width="128" height="40" as="alternateBounds" />
          </mxGeometry>
        </mxCell>
        <mxCell id="9EujGWN3wRDiF9waKeuq-108" value="" style="shape=partialRectangle;html=1;whiteSpace=wrap;connectable=0;strokeColor=inherit;overflow=hidden;fillColor=none;top=0;left=0;bottom=0;right=0;pointerEvents=1;" parent="9EujGWN3wRDiF9waKeuq-103" vertex="1">
          <mxGeometry x="509" width="127" height="40" as="geometry">
            <mxRectangle width="127" height="40" as="alternateBounds" />
          </mxGeometry>
        </mxCell>
        <mxCell id="9EujGWN3wRDiF9waKeuq-109" value="" style="shape=partialRectangle;html=1;whiteSpace=wrap;connectable=0;strokeColor=inherit;overflow=hidden;fillColor=none;top=0;left=0;bottom=0;right=0;pointerEvents=1;" parent="9EujGWN3wRDiF9waKeuq-103" vertex="1">
          <mxGeometry x="636" width="127" height="40" as="geometry">
            <mxRectangle width="127" height="40" as="alternateBounds" />
          </mxGeometry>
        </mxCell>
        <mxCell id="9EujGWN3wRDiF9waKeuq-110" value="" style="shape=partialRectangle;html=1;whiteSpace=wrap;connectable=0;strokeColor=inherit;overflow=hidden;fillColor=none;top=0;left=0;bottom=0;right=0;pointerEvents=1;" parent="9EujGWN3wRDiF9waKeuq-103" vertex="1">
          <mxGeometry x="763" width="127" height="40" as="geometry">
            <mxRectangle width="127" height="40" as="alternateBounds" />
          </mxGeometry>
        </mxCell>
        <mxCell id="9EujGWN3wRDiF9waKeuq-111" value="" style="shape=tableRow;horizontal=0;startSize=0;swimlaneHead=0;swimlaneBody=0;strokeColor=inherit;top=0;left=0;bottom=0;right=0;collapsible=0;dropTarget=0;fillColor=none;points=[[0,0.5],[1,0.5]];portConstraint=eastwest;" parent="9EujGWN3wRDiF9waKeuq-86" vertex="1">
          <mxGeometry y="120" width="890" height="40" as="geometry" />
        </mxCell>
        <mxCell id="9EujGWN3wRDiF9waKeuq-112" value="" style="shape=partialRectangle;html=1;whiteSpace=wrap;connectable=0;strokeColor=inherit;overflow=hidden;fillColor=none;top=0;left=0;bottom=0;right=0;pointerEvents=1;" parent="9EujGWN3wRDiF9waKeuq-111" vertex="1">
          <mxGeometry width="127" height="40" as="geometry">
            <mxRectangle width="127" height="40" as="alternateBounds" />
          </mxGeometry>
        </mxCell>
        <mxCell id="9EujGWN3wRDiF9waKeuq-113" value="" style="shape=partialRectangle;html=1;whiteSpace=wrap;connectable=0;strokeColor=inherit;overflow=hidden;fillColor=none;top=0;left=0;bottom=0;right=0;pointerEvents=1;" parent="9EujGWN3wRDiF9waKeuq-111" vertex="1">
          <mxGeometry x="127" width="127" height="40" as="geometry">
            <mxRectangle width="127" height="40" as="alternateBounds" />
          </mxGeometry>
        </mxCell>
        <mxCell id="9EujGWN3wRDiF9waKeuq-114" value="" style="shape=partialRectangle;html=1;whiteSpace=wrap;connectable=0;strokeColor=inherit;overflow=hidden;fillColor=none;top=0;left=0;bottom=0;right=0;pointerEvents=1;" parent="9EujGWN3wRDiF9waKeuq-111" vertex="1">
          <mxGeometry x="254" width="127" height="40" as="geometry">
            <mxRectangle width="127" height="40" as="alternateBounds" />
          </mxGeometry>
        </mxCell>
        <mxCell id="9EujGWN3wRDiF9waKeuq-115" value="" style="shape=partialRectangle;html=1;whiteSpace=wrap;connectable=0;strokeColor=inherit;overflow=hidden;fillColor=none;top=0;left=0;bottom=0;right=0;pointerEvents=1;" parent="9EujGWN3wRDiF9waKeuq-111" vertex="1">
          <mxGeometry x="381" width="128" height="40" as="geometry">
            <mxRectangle width="128" height="40" as="alternateBounds" />
          </mxGeometry>
        </mxCell>
        <mxCell id="9EujGWN3wRDiF9waKeuq-116" value="" style="shape=partialRectangle;html=1;whiteSpace=wrap;connectable=0;strokeColor=inherit;overflow=hidden;fillColor=none;top=0;left=0;bottom=0;right=0;pointerEvents=1;" parent="9EujGWN3wRDiF9waKeuq-111" vertex="1">
          <mxGeometry x="509" width="127" height="40" as="geometry">
            <mxRectangle width="127" height="40" as="alternateBounds" />
          </mxGeometry>
        </mxCell>
        <mxCell id="9EujGWN3wRDiF9waKeuq-117" value="" style="shape=partialRectangle;html=1;whiteSpace=wrap;connectable=0;strokeColor=inherit;overflow=hidden;fillColor=none;top=0;left=0;bottom=0;right=0;pointerEvents=1;" parent="9EujGWN3wRDiF9waKeuq-111" vertex="1">
          <mxGeometry x="636" width="127" height="40" as="geometry">
            <mxRectangle width="127" height="40" as="alternateBounds" />
          </mxGeometry>
        </mxCell>
        <mxCell id="9EujGWN3wRDiF9waKeuq-118" value="" style="shape=partialRectangle;html=1;whiteSpace=wrap;connectable=0;strokeColor=inherit;overflow=hidden;fillColor=none;top=0;left=0;bottom=0;right=0;pointerEvents=1;" parent="9EujGWN3wRDiF9waKeuq-111" vertex="1">
          <mxGeometry x="763" width="127" height="40" as="geometry">
            <mxRectangle width="127" height="40" as="alternateBounds" />
          </mxGeometry>
        </mxCell>
        <mxCell id="9EujGWN3wRDiF9waKeuq-119" value="" style="shape=tableRow;horizontal=0;startSize=0;swimlaneHead=0;swimlaneBody=0;strokeColor=inherit;top=0;left=0;bottom=0;right=0;collapsible=0;dropTarget=0;fillColor=none;points=[[0,0.5],[1,0.5]];portConstraint=eastwest;" parent="9EujGWN3wRDiF9waKeuq-86" vertex="1">
          <mxGeometry y="160" width="890" height="40" as="geometry" />
        </mxCell>
        <mxCell id="9EujGWN3wRDiF9waKeuq-120" value="" style="shape=partialRectangle;html=1;whiteSpace=wrap;connectable=0;strokeColor=inherit;overflow=hidden;fillColor=none;top=0;left=0;bottom=0;right=0;pointerEvents=1;" parent="9EujGWN3wRDiF9waKeuq-119" vertex="1">
          <mxGeometry width="127" height="40" as="geometry">
            <mxRectangle width="127" height="40" as="alternateBounds" />
          </mxGeometry>
        </mxCell>
        <mxCell id="9EujGWN3wRDiF9waKeuq-121" value="" style="shape=partialRectangle;html=1;whiteSpace=wrap;connectable=0;strokeColor=inherit;overflow=hidden;fillColor=none;top=0;left=0;bottom=0;right=0;pointerEvents=1;" parent="9EujGWN3wRDiF9waKeuq-119" vertex="1">
          <mxGeometry x="127" width="127" height="40" as="geometry">
            <mxRectangle width="127" height="40" as="alternateBounds" />
          </mxGeometry>
        </mxCell>
        <mxCell id="9EujGWN3wRDiF9waKeuq-122" value="" style="shape=partialRectangle;html=1;whiteSpace=wrap;connectable=0;strokeColor=inherit;overflow=hidden;fillColor=none;top=0;left=0;bottom=0;right=0;pointerEvents=1;" parent="9EujGWN3wRDiF9waKeuq-119" vertex="1">
          <mxGeometry x="254" width="127" height="40" as="geometry">
            <mxRectangle width="127" height="40" as="alternateBounds" />
          </mxGeometry>
        </mxCell>
        <mxCell id="9EujGWN3wRDiF9waKeuq-123" value="" style="shape=partialRectangle;html=1;whiteSpace=wrap;connectable=0;strokeColor=inherit;overflow=hidden;fillColor=none;top=0;left=0;bottom=0;right=0;pointerEvents=1;" parent="9EujGWN3wRDiF9waKeuq-119" vertex="1">
          <mxGeometry x="381" width="128" height="40" as="geometry">
            <mxRectangle width="128" height="40" as="alternateBounds" />
          </mxGeometry>
        </mxCell>
        <mxCell id="9EujGWN3wRDiF9waKeuq-124" value="" style="shape=partialRectangle;html=1;whiteSpace=wrap;connectable=0;strokeColor=inherit;overflow=hidden;fillColor=none;top=0;left=0;bottom=0;right=0;pointerEvents=1;" parent="9EujGWN3wRDiF9waKeuq-119" vertex="1">
          <mxGeometry x="509" width="127" height="40" as="geometry">
            <mxRectangle width="127" height="40" as="alternateBounds" />
          </mxGeometry>
        </mxCell>
        <mxCell id="9EujGWN3wRDiF9waKeuq-125" value="" style="shape=partialRectangle;html=1;whiteSpace=wrap;connectable=0;strokeColor=inherit;overflow=hidden;fillColor=none;top=0;left=0;bottom=0;right=0;pointerEvents=1;" parent="9EujGWN3wRDiF9waKeuq-119" vertex="1">
          <mxGeometry x="636" width="127" height="40" as="geometry">
            <mxRectangle width="127" height="40" as="alternateBounds" />
          </mxGeometry>
        </mxCell>
        <mxCell id="9EujGWN3wRDiF9waKeuq-126" value="" style="shape=partialRectangle;html=1;whiteSpace=wrap;connectable=0;strokeColor=inherit;overflow=hidden;fillColor=none;top=0;left=0;bottom=0;right=0;pointerEvents=1;" parent="9EujGWN3wRDiF9waKeuq-119" vertex="1">
          <mxGeometry x="763" width="127" height="40" as="geometry">
            <mxRectangle width="127" height="40" as="alternateBounds" />
          </mxGeometry>
        </mxCell>
        <mxCell id="9EujGWN3wRDiF9waKeuq-136" value="" style="html=1;shadow=0;dashed=0;fillColor=#F8F9FA;strokeColor=none;fontSize=16;fontColor=#181819;align=left;spacing=15;" parent="u52cNytf9pB5Nw0GOw8_-13" vertex="1">
          <mxGeometry x="60" y="290" width="800" height="100" as="geometry" />
        </mxCell>
        <mxCell id="9EujGWN3wRDiF9waKeuq-137" value="title" style="html=1;shadow=0;dashed=0;shape=mxgraph.bootstrap.rrect;rSize=5;fontSize=14;fontColor=#6C767D;strokeColor=#CED4DA;fillColor=#ffffff;align=left;spacing=10;" parent="9EujGWN3wRDiF9waKeuq-136" vertex="1">
          <mxGeometry width="160" height="30" relative="1" as="geometry">
            <mxPoint x="85" y="45" as="offset" />
          </mxGeometry>
        </mxCell>
        <mxCell id="9EujGWN3wRDiF9waKeuq-138" value="Search" style="html=1;shadow=0;dashed=0;shape=mxgraph.bootstrap.rrect;rSize=5;fontSize=14;fontColor=#33A64C;strokeColor=#33A64C;fillColor=none;" parent="9EujGWN3wRDiF9waKeuq-136" vertex="1">
          <mxGeometry width="70" height="40" relative="1" as="geometry">
            <mxPoint x="720" y="37" as="offset" />
          </mxGeometry>
        </mxCell>
        <UserObject label="&lt;font style=&quot;font-size: 14px;&quot;&gt;Title&lt;/font&gt;" placeholders="1" name="Variable" id="9EujGWN3wRDiF9waKeuq-129">
          <mxCell style="text;html=1;strokeColor=none;fillColor=none;align=center;verticalAlign=middle;whiteSpace=wrap;overflow=hidden;" parent="9EujGWN3wRDiF9waKeuq-136" vertex="1">
            <mxGeometry y="43.1" width="80" height="26.9" as="geometry" />
          </mxCell>
        </UserObject>
        <UserObject label="Author" placeholders="1" name="Variable" id="9EujGWN3wRDiF9waKeuq-130">
          <mxCell style="text;html=1;strokeColor=none;fillColor=none;align=center;verticalAlign=middle;whiteSpace=wrap;overflow=hidden;" parent="9EujGWN3wRDiF9waKeuq-136" vertex="1">
            <mxGeometry x="290" y="44.83" width="80" height="25.17" as="geometry" />
          </mxCell>
        </UserObject>
        <mxCell id="9EujGWN3wRDiF9waKeuq-132" value="Select" style="html=1;shadow=0;dashed=0;shape=mxgraph.bootstrap.rrect;rSize=5;strokeColor=#505050;strokeWidth=1;fillColor=#ffffff;fontColor=#777777;whiteSpace=wrap;align=left;verticalAlign=middle;fontStyle=0;fontSize=14;spacingRight=0;spacing=17;" parent="9EujGWN3wRDiF9waKeuq-136" vertex="1">
          <mxGeometry x="370" y="44.83" width="120" height="25.17" as="geometry" />
        </mxCell>
        <mxCell id="9EujGWN3wRDiF9waKeuq-133" value="" style="shape=triangle;direction=south;fillColor=#495057;strokeColor=none;perimeter=none;" parent="9EujGWN3wRDiF9waKeuq-132" vertex="1">
          <mxGeometry x="1" y="0.5" width="10" height="5" relative="1" as="geometry">
            <mxPoint x="-17" y="-2.5" as="offset" />
          </mxGeometry>
        </mxCell>
        <UserObject label="Genre" placeholders="1" name="Variable" id="9EujGWN3wRDiF9waKeuq-131">
          <mxCell style="text;html=1;strokeColor=none;fillColor=none;align=center;verticalAlign=middle;whiteSpace=wrap;overflow=hidden;" parent="9EujGWN3wRDiF9waKeuq-136" vertex="1">
            <mxGeometry x="520" y="44.83" width="80" height="25.17" as="geometry" />
          </mxCell>
        </UserObject>
        <mxCell id="9EujGWN3wRDiF9waKeuq-134" value="Select" style="html=1;shadow=0;dashed=0;shape=mxgraph.bootstrap.rrect;rSize=5;strokeColor=#505050;strokeWidth=1;fillColor=#ffffff;fontColor=#777777;whiteSpace=wrap;align=left;verticalAlign=middle;fontStyle=0;fontSize=14;spacingRight=0;spacing=17;" parent="9EujGWN3wRDiF9waKeuq-136" vertex="1">
          <mxGeometry x="590" y="44.83" width="120" height="25.17" as="geometry" />
        </mxCell>
        <mxCell id="9EujGWN3wRDiF9waKeuq-135" value="" style="shape=triangle;direction=south;fillColor=#495057;strokeColor=none;perimeter=none;" parent="9EujGWN3wRDiF9waKeuq-134" vertex="1">
          <mxGeometry x="1" y="0.5" width="10" height="5" relative="1" as="geometry">
            <mxPoint x="-17" y="-2.5" as="offset" />
          </mxGeometry>
        </mxCell>
        <mxCell id="9EujGWN3wRDiF9waKeuq-128" value="&lt;font style=&quot;font-size: 14px;&quot;&gt;Seach Books&lt;/font&gt;" style="text;strokeColor=none;fillColor=none;html=1;fontSize=24;fontStyle=1;verticalAlign=middle;align=center;" parent="9EujGWN3wRDiF9waKeuq-136" vertex="1">
          <mxGeometry x="12.5" y="3.1000000000000227" width="135" height="40" as="geometry" />
        </mxCell>
      </root>
    </mxGraphModel>
  </diagram>
</mxfile>
